:SAMPLES-PER-SECOND 24
:FULLY-SPECIFIED
:DEGREES
260
root  -2.62878 39.424 16.3352 33.7501 12.8546 16.4058
RightUpLeg  -33.575 -29.7835 1.88568
RightLeg  20.6665 -10.1798 -4.41129
RightFoot  -18.418 -0.0359755 1.44291
RightToes  -1.74623e-010 0 -2.59999e-017
Spine  20.8767 -2.04388 4.57531
Spine1  9.45325 2.04143 -13.4627
HEad  -37.5735 47.6202 -51.8978
LeftShoulder1  1.92127 -3.99458 -19.109
LeftArm  12.3436 -10.9135 -54.8654
LeftForeArm  79.7817 -79.5541 -87.1635
LeftHand  1.39909 13.8788 19.2105
RightShoulder  2.73922 5.49134 24.3435
RightArm  -10.6011 11.632 8.29515
RightForeArm  20.0044 46.7426 10.4917
RightHand  -3.26795 9.16507 -25.9501
LeftUpLeg  -54.9524 9.19363 -11.7324
LeftLeg  65.1279 -3.98874 -8.70198
LeftFoot  -0.967512 1.86877 -20.3036
LeftToes  -6.27559e-011 -2.10356e-011 8.24929e-012
261
root  -3.10305 39.8021 15.7742 45.887 16.722 25.8095
RightUpLeg  -42.6244 -29.6098 -2.92769
RightLeg  19.7592 -18.7815 -5.89256
RightFoot  -15.9182 -0.0676537 1.00309
RightToes  -1.74623e-010 0 -2.59999e-017
Spine  19.5559 -3.71615 1.26158
Spine1  6.93274 -1.48196 -10.9063
HEad  -40.0345 45.9253 -54.6583
LeftShoulder1  1.96144 -4.45706 -18.0474
LeftArm  18.3095 -13.6823 -58.2266
LeftForeArm  82.3262 -79.5595 -89.8966
LeftHand  1.38947 15.0861 16.8271
RightShoulder  2.81296 5.45188 25.3508
RightArm  -10.9902 4.68996 8.39478
RightForeArm  17.1733 39.1562 8.04349
RightHand  -3.57771 9.56739 -27.5714
LeftUpLeg  -54.2956 14.5695 -14.7268
LeftLeg  82.3666 -1.06258 -7.9728
LeftFoot  1.65667 2.05678 -18.0165
LeftToes  -6.27559e-011 -2.10356e-011 8.24929e-012
262
root  -3.34165 40.0632 15.4115 58.4609 16.1698 35.3348
RightUpLeg  -48.7937 -27.5083 -13.9769
RightLeg  19.3612 -30.9198 -7.57651
RightFoot  -12.4748 -0.082351 0.236214
RightToes  -1.74623e-010 0 -2.59999e-017
Spine  17.5532 -5.86603 -2.38955
Spine1  4.57701 -5.0725 -8.31653
HEad  -43.8545 44.6942 -58.6577
LeftShoulder1  1.99883 -4.81113 -17.4
LeftArm  24.39 -15.3302 -61.2095
LeftForeArm  91.0252 -79.4243 -98.9126
LeftHand  1.5473 16.4926 16.3451
RightShoulder  2.80552 5.24996 26.0213
RightArm  -12.6293 -6.28113 8.55142
RightForeArm  16.1094 36.6038 7.35781
RightHand  -3.57101 9.31382 -27.9723
LeftUpLeg  -48.5307 19.5084 -11.2258
LeftLeg  93.0889 0.449 -7.92531
LeftFoot  9.10896 3.31934 -18.5041
LeftToes  -6.27559e-011 -2.10356e-011 8.24929e-012
263
root  -3.29493 40.3471 15.446 65.9617 15.6498 41.2241
RightUpLeg  -47.2985 -23.8884 -24.3234
RightLeg  15.2397 -42.459 -8.68413
RightFoot  -8.57725 -0.0895161 1.06488
RightToes  -1.74623e-010 0 -2.59999e-017
Spine  21.8055 -8.74949 -1.26804
Spine1  -1.06956 -8.06117 -7.43159
HEad  -47.9311 44.0271 -62.1969
LeftShoulder1  1.92427 -4.8366 -16.3489
LeftArm  30.6353 -16.7565 -64.2514
LeftForeArm  95.44 -79.1811 -104.302
LeftHand  1.56258 17.1293 15.6413
RightShoulder  2.78222 5.05878 26.4854
RightArm  -13.0292 -20.2827 8.89464
RightForeArm  13.8472 36.5008 7.46651
RightHand  -3.69286 9.1555 -29.1695
LeftUpLeg  -34.0684 22.8192 4.54238
LeftLeg  98.077 1.1339 -7.79631
LeftFoot  11.6343 4.39248 -21.8067
LeftToes  -6.27559e-011 -2.10356e-011 8.24929e-012
264
root  -2.93036 40.507 15.2253 67.8704 14.793 40.9747
RightUpLeg  -46.498 -21.6507 -26.0469
RightLeg  8.75741 -45.1615 -6.91382
RightFoot  -5.05333 -0.148141 2.07828
RightToes  -1.74623e-010 0 -2.59999e-017
Spine  30.6878 -10.8416 2.66928
Spine1  -8.35319 -8.97292 -8.61956
HEad  -53.7277 43.2982 -66.6886
LeftShoulder1  1.71174 -4.32064 -15.0387
LeftArm  32.6038 -16.6678 -65.6259
LeftForeArm  102.151 -78.5356 -112.918
LeftHand  1.38797 17.9769 13.1177
RightShoulder  2.76024 4.95817 26.6193
RightArm  -9.03702 -31.9568 9.2607
RightForeArm  8.34203 33.3934 6.94912
RightHand  -3.66175 8.86941 -29.4919
LeftUpLeg  -10.2597 19.6249 27.2894
LeftLeg  91.8494 0.48952 -9.11827
LeftFoot  8.18734 4.09569 -23.7913
LeftToes  -6.27559e-011 -2.10356e-011 8.24929e-012
265
root  -2.45888 40.3174 15.4151 66.8722 11.6203 36.4816
RightUpLeg  -49.8068 -19.2949 -23.8363
RightLeg  8.87482 -42.347 -7.40137
RightFoot  -4.94923 -0.136664 1.84411
RightToes  -1.74623e-010 0 -2.59999e-017
Spine  38.2765 -10.6965 3.53296
Spine1  -12.9576 -8.99799 -10.128
HEad  -59.0029 43.5441 -71.0628
LeftShoulder1  1.47188 -3.46553 -14.2082
LeftArm  29.2266 -14.788 -64.3464
LeftForeArm  113.085 -77.3399 -123.777
LeftHand  1.27439 19.555 10.8311
RightShoulder  2.61617 4.74138 25.6912
RightArm  -3.46176 -37.7089 9.77092
RightForeArm  3.05616 29.1273 6.15923
RightHand  -3.34216 8.62683 -27.4845
LeftUpLeg  17.3705 10.8879 41.4662
LeftLeg  62.6888 -7.12054 -14.0902
LeftFoot  7.8859 3.95559 -23.3506
LeftToes  -6.27559e-011 -2.10356e-011 8.24929e-012
266
root  -2.17368 40.0585 15.2425 67.2068 10.5255 34.8628
RightUpLeg  -53.6579 -17.7222 -22.865
RightLeg  13.8568 -40.9286 -12.3418
RightFoot  -6.26237 -0.0779654 0.828448
RightToes  -1.74623e-010 0 -2.59999e-017
Spine  43.465 -10.9273 3.99372
Spine1  -15.778 -9.88123 -8.10719
HEad  -58.8372 45.1859 -71.9301
LeftShoulder1  1.35991 -2.98656 -14.0238
LeftArm  26.5514 -14.7427 -62.3892
LeftForeArm  113.574 -77.5601 -122.714
LeftHand  0.913489 20.5634 7.51643
RightShoulder  2.49101 4.53324 24.9236
RightArm  -1.92199 -40.9361 8.81857
RightForeArm  -1.11995 26.3899 5.69248
RightHand  -3.27464 8.56461 -27.0717
LeftUpLeg  38.4758 5.19887 50.8736
LeftLeg  24.8674 -15.6289 -6.7802
LeftFoot  5.99566 3.96451 -25.8462
LeftToes  -6.27559e-011 -2.10356e-011 8.24929e-012
